<?xml version="1.0" encoding="UTF-8" standalone="no"?>
<!DOCTYPE svg PUBLIC "-//W3C//DTD SVG 1.1//EN" "http://www.w3.org/Graphics/SVG/1.1/DTD/svg11.dtd">
<svg width="100%" height="100%" viewBox="0 0 96 96" version="1.1" xmlns="http://www.w3.org/2000/svg" xmlns:xlink="http://www.w3.org/1999/xlink" xml:space="preserve" xmlns:serif="http://www.serif.com/" style="fill-rule:evenodd;clip-rule:evenodd;stroke-linejoin:round;stroke-miterlimit:2;">
    <path d="M16.315,48L16.315,44.703C14.208,43.491 12.794,41.216 12.794,38.612C12.794,34.723 15.946,31.571 19.835,31.571C22.44,31.571 24.714,32.985 25.927,35.091L32.52,35.091C33.132,34.021 34.021,33.132 35.091,32.52L35.091,25.927C34.021,25.315 33.132,24.426 32.52,23.356L25.927,23.356C24.714,25.462 22.44,26.876 19.835,26.876C15.946,26.876 12.794,23.724 12.794,19.835C12.794,15.946 15.946,12.794 19.835,12.794C22.44,12.794 24.714,14.208 25.927,16.315L32.52,16.315C33.733,14.208 36.007,12.794 38.612,12.794C42.5,12.794 45.653,15.946 45.653,19.835C45.653,22.44 44.239,24.714 42.132,25.927L42.132,32.52C44.239,33.733 45.653,36.007 45.653,38.612C45.653,42.5 42.5,45.653 38.612,45.653C36.007,45.653 33.733,44.239 32.52,42.132L25.927,42.132C25.315,43.202 24.426,44.091 23.356,44.703L23.356,48L16.315,48Z" style="fill:rgb(150,51,177);"/>
</svg>
