<?xml version="1.0" encoding="UTF-8" standalone="no"?>
<!DOCTYPE svg PUBLIC "-//W3C//DTD SVG 1.1//EN" "http://www.w3.org/Graphics/SVG/1.1/DTD/svg11.dtd">
<svg width="100%" height="100%" viewBox="0 0 96 96" version="1.1" xmlns="http://www.w3.org/2000/svg" xmlns:xlink="http://www.w3.org/1999/xlink" xml:space="preserve" xmlns:serif="http://www.serif.com/" style="fill-rule:evenodd;clip-rule:evenodd;stroke-linejoin:round;stroke-miterlimit:2;">
    <path d="M23.356,48L23.356,51.297C25.462,52.509 26.876,54.784 26.876,57.388C26.876,59.993 25.462,62.267 23.356,63.48L23.356,70.073C24.426,70.685 25.315,71.574 25.927,72.644L32.52,72.644C33.132,71.574 34.021,70.685 35.091,70.073L35.091,63.48C32.985,62.267 31.571,59.993 31.571,57.388C31.571,53.5 34.723,50.347 38.612,50.347C41.216,50.347 43.491,51.761 44.703,53.868L48.309,53.868L48.309,60.909L44.703,60.909C44.091,61.979 43.202,62.868 42.132,63.48L42.132,70.073C44.239,71.286 45.653,73.56 45.653,76.165C45.653,80.054 42.5,83.206 38.612,83.206C36.007,83.206 33.733,81.792 32.52,79.685L25.927,79.685C24.714,81.792 22.44,83.206 19.835,83.206C15.946,83.206 12.794,80.054 12.794,76.165C12.794,73.56 14.208,71.286 16.315,70.073L16.315,63.48C14.208,62.267 12.794,59.993 12.794,57.388C12.794,54.784 14.208,52.509 16.315,51.297L16.315,48L23.356,48Z" style="fill:rgb(214,74,159);"/>
</svg>
