<?xml version="1.0" encoding="UTF-8" standalone="no"?>
<!DOCTYPE svg PUBLIC "-//W3C//DTD SVG 1.1//EN" "http://www.w3.org/Graphics/SVG/1.1/DTD/svg11.dtd">
<svg width="100%" height="100%" viewBox="0 0 96 96" version="1.1" xmlns="http://www.w3.org/2000/svg" xmlns:xlink="http://www.w3.org/1999/xlink" xml:space="preserve" xmlns:serif="http://www.serif.com/" style="fill-rule:evenodd;clip-rule:evenodd;stroke-linejoin:round;stroke-miterlimit:2;">
    <path d="M79.685,48L79.685,51.297C81.792,52.509 83.206,54.784 83.206,57.388C83.206,59.993 81.792,62.267 79.685,63.48L79.685,70.073C81.792,71.286 83.206,73.56 83.206,76.165C83.206,80.054 80.054,83.206 76.165,83.206C73.56,83.206 71.286,81.792 70.073,79.685L63.48,79.685C62.267,81.792 59.993,83.206 57.388,83.206C53.5,83.206 50.347,80.054 50.347,76.165C50.347,73.56 51.761,71.286 53.868,70.073L53.868,63.48C52.798,62.868 51.909,61.979 51.297,60.909L48.309,60.909L48.309,53.868L51.297,53.868C52.509,51.761 54.784,50.347 57.388,50.347C61.277,50.347 64.429,53.5 64.429,57.388C64.429,59.993 63.015,62.267 60.909,63.48L60.909,70.073C61.979,70.685 62.868,71.574 63.48,72.644L70.073,72.644C70.685,71.574 71.574,70.685 72.644,70.073L72.644,63.48C70.538,62.267 69.124,59.993 69.124,57.388C69.124,54.784 70.538,52.509 72.644,51.297L72.644,48L79.685,48Z" style="fill:rgb(229,101,61);"/>
</svg>
