<?xml version="1.0" encoding="UTF-8" standalone="no"?>
<!DOCTYPE svg PUBLIC "-//W3C//DTD SVG 1.1//EN" "http://www.w3.org/Graphics/SVG/1.1/DTD/svg11.dtd">
<svg width="100%" height="100%" viewBox="0 0 96 96" version="1.1" xmlns="http://www.w3.org/2000/svg" xmlns:xlink="http://www.w3.org/1999/xlink" xml:space="preserve" xmlns:serif="http://www.serif.com/" style="fill-rule:evenodd;clip-rule:evenodd;stroke-linejoin:round;stroke-miterlimit:2;">
    <path d="M72.644,48L72.644,44.703C71.574,44.091 70.685,43.202 70.073,42.132L63.48,42.132C62.267,44.239 59.993,45.653 57.388,45.653C53.5,45.653 50.347,42.5 50.347,38.612C50.347,36.007 51.761,33.733 53.868,32.52L53.868,25.927C51.761,24.714 50.347,22.44 50.347,19.835C50.347,15.946 53.5,12.794 57.388,12.794C59.993,12.794 62.267,14.208 63.48,16.315L70.073,16.315C71.286,14.208 73.56,12.794 76.165,12.794C80.054,12.794 83.206,15.946 83.206,19.835C83.206,23.724 80.054,26.876 76.165,26.876C73.56,26.876 71.286,25.462 70.073,23.356L63.48,23.356C62.868,24.426 61.979,25.315 60.909,25.927L60.909,32.52C61.979,33.132 62.868,34.021 63.48,35.091L70.073,35.091C71.286,32.985 73.56,31.571 76.165,31.571C80.054,31.571 83.206,34.723 83.206,38.612C83.206,41.216 81.792,43.491 79.685,44.703L79.685,48L72.644,48Z" style="fill:rgb(232,0,60);"/>
</svg>
